# This file uses centimeters as units for non-parametric coordinates.

mtllib drainpipe_straight.mtl
g default
v 2.949707 25.261174 -42.215926
v 0.000000 25.261174 -44.367989
v -2.949707 25.261174 -42.215926
v -4.171515 25.261174 -37.020387
v -2.949707 25.261174 -31.824848
v 0.000000 25.261174 -29.672785
v 2.949707 25.261174 -31.824848
v 4.171516 25.261174 -37.020387
v 2.949707 265.261167 -42.215926
v 0.000000 265.261167 -44.367989
v -2.949707 265.261167 -42.215926
v -4.171515 265.261167 -37.020387
v -2.949707 265.261167 -31.824848
v 0.000000 265.261167 -29.672785
v 2.949707 265.261167 -31.824848
v 4.171516 265.261167 -37.020387
v 0.000000 265.261167 -43.633228
v -2.654736 265.261167 -41.696372
v -3.754364 265.261167 -37.020387
v -2.654736 265.261167 -32.344402
v 0.000000 265.261167 -30.407545
v 2.654736 265.261167 -32.344402
v 3.754364 265.261167 -37.020387
v 2.654736 265.261167 -41.696372
v 2.654736 25.715419 -41.696372
v -0.000000 25.715426 -43.633228
v -2.654736 25.715426 -41.696372
v -3.754364 25.715426 -37.020387
v -2.654736 25.715426 -32.344402
v -0.000000 25.715426 -30.407545
v 2.654736 25.715419 -32.344404
v 3.754364 25.715412 -37.020389
vt 0.375000 0.312500
vt 0.406250 0.312500
vt 0.437500 0.312500
vt 0.468750 0.312500
vt 0.500000 0.312500
vt 0.531250 0.312500
vt 0.562500 0.312500
vt 0.593750 0.312500
vt 0.625000 0.312500
vt 0.375000 0.688440
vt 0.406250 0.688440
vt 0.437500 0.688440
vt 0.468750 0.688440
vt 0.500000 0.688440
vt 0.531250 0.688440
vt 0.562500 0.688440
vt 0.593750 0.688440
vt 0.625000 0.688440
vt 0.610485 0.733265
vt 0.500000 0.687500
vt 0.389515 0.733265
vt 0.343750 0.843750
vt 0.389515 0.954235
vt 0.500000 1.000000
vt 0.610485 0.954235
vt 0.656250 0.843750
vt 0.500000 0.983750
vt 0.400563 0.942562
vt 0.359375 0.843125
vt 0.400563 0.743688
vt 0.500000 0.702500
vt 0.599437 0.743688
vt 0.640625 0.843125
vt 0.599437 0.942562
vt 0.599437 0.942562
vt 0.500000 0.983750
vt 0.400563 0.942562
vt 0.359375 0.843125
vt 0.400563 0.743688
vt 0.500000 0.702500
vt 0.599437 0.743688
vt 0.640625 0.843125
vt 0.050000 0.000000
vt 0.950000 0.000000
vt 1.000000 0.120812
vt 0.000000 0.120812
vt 0.000000 0.000000
vt 1.000000 0.000000
vt 0.950000 0.120812
vt 0.050000 0.120812
vt 0.050000 0.000000
vt 0.950000 0.000000
vt 1.000000 0.120812
vt 0.000000 0.120812
vt 0.000000 0.000000
vt 1.000000 0.000000
vt 0.950000 0.120812
vt 0.050000 0.120812
vt 0.050000 0.000000
vt 0.950000 0.000000
vt 1.000000 0.120812
vt 0.000000 0.120812
vt 0.050000 0.000000
vt 0.950000 0.000000
vt 1.000000 0.120812
vt 0.000000 0.120812
vt 0.050000 0.000000
vt 0.950000 0.000000
vt 1.000000 0.120812
vt 0.000000 0.120812
vt 0.050000 0.000000
vt 0.950000 0.000000
vt 1.000000 0.120812
vt 0.000000 0.120812
vn 0.589393 0.000000 -0.807846
vn 0.589393 0.000000 -0.807846
vn 0.589393 0.000000 -0.807846
vn 0.589393 0.000000 -0.807846
vn -0.589393 0.000000 -0.807846
vn -0.589393 0.000000 -0.807846
vn -0.589393 0.000000 -0.807846
vn -0.589393 0.000000 -0.807846
vn -0.973445 0.000000 -0.228920
vn -0.973445 0.000000 -0.228920
vn -0.973445 0.000000 -0.228920
vn -0.973445 0.000000 -0.228920
vn -0.973445 0.000000 0.228920
vn -0.973445 0.000000 0.228920
vn -0.973445 0.000000 0.228920
vn -0.973445 0.000000 0.228920
vn -0.589393 0.000000 0.807846
vn -0.589393 0.000000 0.807846
vn -0.589393 0.000000 0.807846
vn -0.589393 0.000000 0.807846
vn 0.589393 0.000000 0.807846
vn 0.589393 0.000000 0.807846
vn 0.589393 0.000000 0.807846
vn 0.589393 0.000000 0.807846
vn 0.973445 0.000000 0.228920
vn 0.973445 0.000000 0.228920
vn 0.973445 0.000000 0.228920
vn 0.973445 0.000000 0.228920
vn 0.973445 0.000000 -0.228920
vn 0.973445 0.000000 -0.228920
vn 0.973445 0.000000 -0.228920
vn 0.973445 0.000000 -0.228920
vn 0.000000 1.000000 0.000000
vn 0.000000 1.000000 0.000000
vn 0.000000 1.000000 0.000000
vn 0.000000 1.000000 0.000000
vn 0.000000 1.000000 0.000000
vn 0.000000 1.000000 0.000000
vn 0.000000 1.000000 0.000000
vn 0.000000 1.000000 0.000000
vn 0.000000 1.000000 0.000000
vn 0.000000 1.000000 0.000000
vn 0.000000 1.000000 0.000000
vn 0.000000 1.000000 0.000000
vn 0.000000 1.000000 0.000000
vn 0.000000 1.000000 0.000000
vn 0.000000 1.000000 0.000000
vn 0.000000 1.000000 0.000000
vn -0.589393 0.000000 0.807847
vn -0.589393 0.000000 0.807847
vn -0.589393 0.000000 0.807847
vn -0.589393 0.000000 0.807846
vn 0.589393 0.000000 0.807846
vn 0.589393 0.000000 0.807846
vn 0.589393 0.000000 0.807846
vn 0.589393 0.000000 0.807846
vn 0.973445 0.000000 0.228920
vn 0.973445 0.000000 0.228920
vn 0.973445 0.000000 0.228920
vn 0.973445 0.000000 0.228920
vn 0.973445 -0.000000 -0.228920
vn 0.973445 -0.000000 -0.228920
vn 0.973445 -0.000000 -0.228920
vn 0.973445 -0.000000 -0.228920
vn 0.589393 0.000000 -0.807846
vn 0.589393 0.000000 -0.807846
vn 0.589393 0.000000 -0.807846
vn 0.589393 0.000000 -0.807846
vn -0.589393 0.000000 -0.807846
vn -0.589393 0.000000 -0.807846
vn -0.589393 0.000000 -0.807846
vn -0.589393 0.000000 -0.807846
vn -0.973445 0.000000 -0.228920
vn -0.973445 0.000000 -0.228920
vn -0.973445 0.000000 -0.228920
vn -0.973445 0.000000 -0.228920
vn -0.973445 -0.000000 0.228920
vn -0.973445 -0.000000 0.228920
vn -0.973445 -0.000000 0.228920
vn -0.973445 -0.000000 0.228920
vn -0.725731 -0.666475 -0.170664
vn -0.725731 -0.666475 -0.170664
vn -0.725731 -0.666475 -0.170664
vn -0.725731 -0.666475 -0.170664
vn -0.358195 -0.794137 -0.490961
vn -0.358195 -0.794137 -0.490961
vn -0.358195 -0.794137 -0.490961
vn -0.358195 -0.794137 -0.490961
vn -0.725732 -0.666474 0.170662
vn -0.725732 -0.666474 0.170662
vn -0.725732 -0.666474 0.170662
vn -0.725732 -0.666474 0.170662
vn -0.358196 -0.794138 0.490958
vn -0.358196 -0.794138 0.490958
vn -0.358196 -0.794138 0.490958
vn -0.358196 -0.794138 0.490958
vn 0.358196 -0.794133 0.490967
vn 0.358196 -0.794133 0.490967
vn 0.358196 -0.794133 0.490967
vn 0.358196 -0.794133 0.490967
vn 0.725739 -0.666465 0.170666
vn 0.725739 -0.666465 0.170666
vn 0.725739 -0.666465 0.170666
vn 0.725739 -0.666465 0.170666
vn 0.725739 -0.666465 -0.170667
vn 0.725739 -0.666465 -0.170667
vn 0.725739 -0.666465 -0.170667
vn 0.725739 -0.666465 -0.170667
vn 0.358197 -0.794136 -0.490962
vn 0.358197 -0.794136 -0.490962
vn 0.358197 -0.794136 -0.490962
vn 0.358197 -0.794136 -0.490962
s off
g drainpipe_straight
usemtl aiStandardSurface1SG
f 1/1/1 2/2/2 10/11/3 9/10/4
f 2/2/5 3/3/6 11/12/7 10/11/8
f 3/3/9 4/4/10 12/13/11 11/12/12
f 4/4/13 5/5/14 13/14/15 12/13/16
f 5/5/17 6/6/18 14/15/19 13/14/20
f 6/6/21 7/7/22 15/16/23 14/15/24
f 7/7/25 8/8/26 16/17/27 15/16/28
f 8/8/29 1/9/30 9/18/31 16/17/32
s 1
f 10/24/33 11/23/34 18/28/35 17/27/36
f 11/23/34 12/22/37 19/29/38 18/28/35
f 12/22/37 13/21/39 20/30/40 19/29/38
f 13/21/39 14/20/41 21/31/42 20/30/40
f 14/20/41 15/19/43 22/32/44 21/31/42
f 15/19/43 16/26/45 23/33/46 22/32/44
f 16/26/45 9/25/47 24/34/48 23/33/46
f 9/25/47 10/24/33 17/27/36 24/34/48
s off
f 24/34/49 17/27/50 26/36/51 25/35/52
f 17/27/53 18/28/54 27/37/55 26/36/56
f 18/28/57 19/29/58 28/38/59 27/37/60
f 19/29/61 20/30/62 29/39/63 28/38/64
f 20/30/65 21/31/66 30/40/67 29/39/68
f 21/31/69 22/32/70 31/41/71 30/40/72
f 22/32/73 23/33/74 32/42/75 31/41/76
f 23/33/77 24/34/78 25/35/79 32/42/80
f 31/43/81 32/44/82 8/45/83 7/46/84
f 7/47/85 6/48/86 30/49/87 31/50/88
f 32/51/89 25/52/90 1/53/91 8/54/92
f 2/55/93 1/56/94 25/57/95 26/58/96
f 26/59/97 27/60/98 3/61/99 2/62/100
f 27/63/101 28/64/102 4/65/103 3/66/104
f 28/67/105 29/68/106 5/69/107 4/70/108
f 29/71/109 30/72/110 6/73/111 5/74/112
