# This file uses centimeters as units for non-parametric coordinates.

mtllib drainpipe_with_hole.mtl
g default
v 2.949707 25.261174 -5.195539
v 0.000000 23.882283 -6.059876
v -2.949707 22.213777 -5.195539
v -4.171516 22.213777 0.000000
v -2.949707 22.213777 5.195539
v 0.000000 23.882283 6.059876
v 2.949708 25.261174 5.195539
v 4.171516 26.592894 0.000000
v 2.949707 265.261167 -5.195539
v 0.000000 265.261167 -7.347602
v -2.949707 265.261167 -5.195539
v -4.171516 265.261167 0.000000
v -2.949707 265.261167 5.195539
v 0.000000 265.261167 7.347602
v 2.949708 265.261167 5.195539
v 4.171516 265.261167 0.000000
v 0.000000 265.261167 -6.612841
v -2.654736 265.261167 -4.675985
v -3.754364 265.261167 0.000000
v -2.654736 265.261167 4.675985
v 0.000000 265.261167 6.612842
v 2.654736 265.261167 4.675985
v 3.754365 265.261167 0.000000
v 2.654736 265.261167 -4.675985
v 2.654736 25.945652 -4.675985
v -0.000000 23.872641 -5.453888
v -2.654736 22.204150 -4.675985
v -3.754364 22.204150 0.000000
v -2.654736 22.204150 4.675985
v -0.000000 23.872641 5.453889
v 2.654736 25.251525 4.675983
v 3.754365 26.583246 -0.000002
v 11.730482 17.940954 4.124716
v 12.213010 20.009573 -0.000002
v 12.282644 20.515431 0.000000
v 11.776952 18.299297 4.583020
v 11.217552 14.274567 6.428422
v 11.227007 14.272307 5.785579
v 11.730482 17.940954 -4.124718
v 11.776951 18.299297 -4.583019
v 11.217552 14.274567 -6.428421
v 11.227007 14.272307 -5.785578
v 10.723557 10.130232 -4.050202
v 10.658149 9.776367 -4.500225
v 10.515019 8.802718 0.000000
v 10.426448 8.301380 -0.000000
v 10.723557 10.130232 4.050202
v 10.658147 9.776381 4.500225
v 5.812089 21.841644 4.542332
v 6.169882 23.181933 -0.000002
v 6.272120 23.426336 0.000000
v 5.900416 22.051299 5.057195
v 3.043970 19.694732 5.886844
v 3.042253 19.692672 5.298465
v 3.915793 21.340764 -4.542835
v 5.891162 22.058595 -5.057837
v 3.031850 19.706605 -5.887837
v 3.031338 19.703344 -5.299299
v 2.008991 17.254580 -4.675985
v 1.904045 17.005213 -5.195539
v 1.619644 16.310228 0.000000
v 1.469855 15.952142 -0.000000
v 2.016716 17.245854 4.675985
v 1.912613 16.995471 5.195539
vt 0.375000 0.312500
vt 0.406250 0.312500
vt 0.437500 0.312500
vt 0.468750 0.312500
vt 0.500000 0.312500
vt 0.531250 0.312500
vt 0.562500 0.312500
vt 0.593750 0.312500
vt 0.625000 0.312500
vt 0.375000 0.688440
vt 0.406250 0.688440
vt 0.437500 0.688440
vt 0.468750 0.688440
vt 0.500000 0.688440
vt 0.531250 0.688440
vt 0.562500 0.688440
vt 0.593750 0.688440
vt 0.625000 0.688440
vt 0.610485 0.733265
vt 0.500000 0.687500
vt 0.389515 0.733265
vt 0.343750 0.843750
vt 0.389515 0.954235
vt 0.500000 1.000000
vt 0.610485 0.954235
vt 0.656250 0.843750
vt 0.500000 0.983750
vt 0.400563 0.942562
vt 0.359375 0.843125
vt 0.400563 0.743688
vt 0.500000 0.702500
vt 0.599437 0.743688
vt 0.640625 0.843125
vt 0.599437 0.942562
vt 0.599437 0.942562
vt 0.500000 0.983750
vt 0.400563 0.942562
vt 0.359375 0.843125
vt 0.400563 0.743688
vt 0.500000 0.702500
vt 0.599437 0.743688
vt 0.640625 0.843125
vt 0.050000 0.000000
vt 0.950000 0.000000
vt 1.000000 0.120812
vt 0.000000 0.120812
vt 0.000000 0.000000
vt 1.000000 0.000000
vt 0.950000 0.120812
vt 0.050000 0.120812
vt 0.050000 0.000000
vt 0.950000 0.000000
vt 1.000000 0.120812
vt 0.000000 0.120812
vt 0.000000 0.000000
vt 1.000000 0.000000
vt 0.950000 0.120812
vt 0.050000 0.120812
vt 0.050000 0.000000
vt 0.950000 0.000000
vt 1.000000 0.120812
vt 0.000000 0.120812
vt 0.050000 0.000000
vt 0.950000 0.000000
vt 1.000000 0.120812
vt 0.000000 0.120812
vt 0.050000 0.000000
vt 0.950000 0.000000
vt 1.000000 0.120812
vt 0.000000 0.120812
vt 0.050000 0.000000
vt 0.950000 0.000000
vt 1.000000 0.120812
vt 0.000000 0.120812
vt 0.050000 0.000000
vt 0.950000 0.000000
vt 1.000000 0.120812
vt 0.000000 0.120812
vt 0.000000 0.000000
vt 1.000000 0.000000
vt 0.950000 0.120812
vt 0.050000 0.120812
vt 0.050000 0.000000
vt 0.950000 0.000000
vt 1.000000 0.120812
vt 0.000000 0.120812
vt 0.000000 0.000000
vt 1.000000 0.000000
vt 0.950000 0.120812
vt 0.050000 0.120812
vt 0.050000 0.000000
vt 0.950000 0.000000
vt 1.000000 0.120812
vt 0.000000 0.120812
vt 0.050000 0.000000
vt 0.950000 0.000000
vt 1.000000 0.120812
vt 0.000000 0.120812
vt 0.050000 0.000000
vt 0.950000 0.000000
vt 1.000000 0.120812
vt 0.000000 0.120812
vt 0.050000 0.000000
vt 0.950000 0.000000
vt 1.000000 0.120812
vt 0.000000 0.120812
vt 0.050000 0.120812
vt 0.050000 0.000000
vt 0.950000 0.000000
vt 0.050000 0.000000
vt 0.000000 0.120812
vt 1.000000 0.120812
vt 0.000000 0.120812
vt 0.000000 0.000000
vt 1.000000 0.000000
vt 1.000000 0.120812
vt 0.950000 0.000000
vt 0.950000 0.120812
vt 0.950000 0.000000
vt 0.950000 0.120812
vt 1.000000 0.000000
vt 1.000000 0.120812
vt 0.000000 0.120812
vt 0.000000 0.000000
vt 0.050000 0.120812
vt 0.050000 0.000000
vt 0.950000 0.000000
vt 0.050000 0.000000
vt 0.000000 0.120812
vt 1.000000 0.120812
vt 0.950000 0.000000
vt 0.050000 0.000000
vt 0.000000 0.120812
vt 1.000000 0.120812
vt 0.950000 0.000000
vt 0.050000 0.000000
vt 0.000000 0.120812
vt 1.000000 0.120812
vn 0.455688 -0.002381 -0.890136
vn 0.455688 -0.002381 -0.890136
vn 0.455688 -0.002381 -0.890136
vn 0.455688 -0.002381 -0.890137
vn -0.454716 -0.002368 -0.890633
vn -0.454716 -0.002368 -0.890634
vn -0.454716 -0.002368 -0.890633
vn -0.454716 -0.002368 -0.890633
vn -0.973445 0.000000 -0.228920
vn -0.973445 0.000000 -0.228920
vn -0.973445 0.000000 -0.228920
vn -0.973445 0.000000 -0.228920
vn -0.973445 0.000000 0.228920
vn -0.973445 0.000000 0.228920
vn -0.973445 0.000000 0.228920
vn -0.973445 0.000000 0.228920
vn -0.454716 -0.002368 0.890634
vn -0.454716 -0.002368 0.890633
vn -0.454716 -0.002368 0.890633
vn -0.454716 -0.002368 0.890633
vn 0.455688 -0.002381 0.890137
vn 0.455688 -0.002381 0.890137
vn 0.455688 -0.002381 0.890137
vn 0.455688 -0.002381 0.890137
vn 0.973445 0.000000 0.228920
vn 0.973445 0.000000 0.228920
vn 0.973445 0.000000 0.228920
vn 0.973445 0.000000 0.228920
vn 0.973445 0.000000 -0.228920
vn 0.973445 0.000000 -0.228920
vn 0.973445 0.000000 -0.228920
vn 0.973445 0.000000 -0.228920
vn 0.000000 1.000000 0.000000
vn 0.000000 1.000000 0.000000
vn 0.000000 1.000000 0.000000
vn 0.000000 1.000000 0.000000
vn 0.000000 1.000000 0.000000
vn 0.000000 1.000000 0.000000
vn 0.000000 1.000000 0.000000
vn 0.000000 1.000000 0.000000
vn 0.000000 1.000000 0.000000
vn 0.000000 1.000000 0.000000
vn 0.000000 1.000000 0.000000
vn 0.000000 1.000000 0.000000
vn 0.000000 1.000000 0.000000
vn 0.000000 1.000000 0.000000
vn 0.000000 1.000000 0.000000
vn 0.000000 1.000000 0.000000
vn -0.455911 0.002146 0.890023
vn -0.455911 0.002146 0.890023
vn -0.455911 0.002146 0.890023
vn -0.455911 0.002146 0.890023
vn 0.454716 0.002131 0.890634
vn 0.454716 0.002131 0.890634
vn 0.454716 0.002131 0.890634
vn 0.454716 0.002131 0.890634
vn 0.973445 0.000000 0.228920
vn 0.973445 0.000000 0.228920
vn 0.973445 0.000000 0.228920
vn 0.973445 0.000000 0.228920
vn 0.973445 -0.000000 -0.228920
vn 0.973445 -0.000000 -0.228920
vn 0.973445 -0.000000 -0.228920
vn 0.973445 -0.000000 -0.228920
vn 0.454716 0.002131 -0.890634
vn 0.454716 0.002131 -0.890634
vn 0.454716 0.002131 -0.890634
vn 0.454716 0.002131 -0.890634
vn -0.455688 0.002143 -0.890137
vn -0.455688 0.002143 -0.890137
vn -0.455688 0.002143 -0.890137
vn -0.455688 0.002143 -0.890137
vn -0.973445 0.000000 -0.228920
vn -0.973445 0.000000 -0.228920
vn -0.973445 0.000000 -0.228920
vn -0.973445 0.000000 -0.228920
vn -0.973445 -0.000000 0.228920
vn -0.973445 -0.000000 0.228920
vn -0.973445 -0.000000 0.228920
vn -0.973445 -0.000000 0.228920
vn 0.987627 -0.152366 0.037111
vn 0.987627 -0.152366 0.037111
vn 0.987627 -0.152366 0.037111
vn 0.987627 -0.152366 0.037111
vn 0.991151 -0.132362 0.010029
vn 0.991151 -0.132362 0.010029
vn 0.991151 -0.132362 0.010029
vn 0.991151 -0.132362 0.010029
vn 0.987627 -0.152365 -0.037110
vn 0.987627 -0.152365 -0.037110
vn 0.987627 -0.152365 -0.037110
vn 0.987627 -0.152365 -0.037110
vn 0.991151 -0.132361 -0.010030
vn 0.991151 -0.132361 -0.010030
vn 0.991151 -0.132361 -0.010030
vn 0.991151 -0.132361 -0.010030
vn 0.990851 -0.132580 -0.025223
vn 0.990851 -0.132580 -0.025223
vn 0.990851 -0.132580 -0.025223
vn 0.990851 -0.132580 -0.025223
vn 0.984730 -0.173974 -0.006320
vn 0.984730 -0.173974 -0.006320
vn 0.984730 -0.173974 -0.006320
vn 0.984730 -0.173974 -0.006320
vn 0.984729 -0.173979 0.006322
vn 0.984729 -0.173979 0.006322
vn 0.984729 -0.173979 0.006322
vn 0.984729 -0.173979 0.006322
vn 0.990851 -0.132582 0.025225
vn 0.990851 -0.132582 0.025225
vn 0.990851 -0.132582 0.025225
vn 0.990851 -0.132582 0.025225
vn -0.743017 -0.602201 -0.292025
vn -0.743017 -0.602201 -0.292025
vn -0.583382 -0.737370 -0.340516
vn -0.608674 -0.719537 -0.334339
vn 0.756674 0.593475 0.274285
vn 0.756674 0.593475 0.274285
vn 0.603907 0.729997 0.320001
vn 0.577171 0.748743 0.325973
vn 0.203533 0.124059 0.971177
vn 0.203533 0.124059 0.971177
vn 0.201884 0.144130 0.968746
vn 0.187319 0.288847 0.938871
vn -0.195443 -0.122584 -0.973024
vn -0.195443 -0.122584 -0.973024
vn -0.185115 -0.282541 -0.941224
vn -0.194565 -0.140297 -0.970804
vn -0.833666 -0.376107 0.404407
vn -0.833666 -0.376107 0.404407
vn -0.698240 -0.554993 0.452154
vn -0.481984 -0.734242 0.478100
vn 0.756822 0.593196 -0.274478
vn 0.756822 0.593196 -0.274478
vn 0.576898 0.748935 -0.326015
vn 0.604201 0.729774 -0.319955
vn 0.203590 0.124053 -0.971165
vn 0.203590 0.124053 -0.971165
vn 0.187553 0.288890 -0.938811
vn 0.201958 0.144186 -0.968723
vn -0.293604 -0.112502 0.949284
vn -0.293604 -0.112502 0.949284
vn -0.268278 -0.184603 0.945488
vn -0.203745 -0.347005 0.915465
vn 0.180407 0.168666 0.969023
vn 0.180407 0.168666 0.969023
vn 0.186299 0.195522 0.962841
vn 0.204090 0.280077 0.938032
vn -0.184353 -0.172651 -0.967577
vn -0.184353 -0.172651 -0.967577
vn -0.207432 -0.283567 -0.936249
vn -0.190119 -0.199461 -0.961286
vn 0.721545 0.667929 0.182327
vn 0.721545 0.667929 0.182327
vn 0.665314 0.715454 0.213267
vn 0.656337 0.722323 0.217881
vn -0.725331 -0.663671 -0.182855
vn -0.725331 -0.663671 -0.182855
vn -0.661122 -0.718074 -0.217456
vn -0.670136 -0.711056 -0.212877
vn 0.721561 0.667920 -0.182298
vn 0.721561 0.667920 -0.182298
vn 0.656266 0.722417 -0.217782
vn 0.665437 0.715394 -0.213084
vn -0.725345 -0.663662 0.182830
vn -0.725345 -0.663662 0.182830
vn -0.670260 -0.710994 0.212697
vn -0.661050 -0.718170 0.217360
vn 0.180211 0.168600 -0.969071
vn 0.180211 0.168600 -0.969071
vn 0.203965 0.279995 -0.938084
vn 0.186086 0.195294 -0.962929
vn -0.184139 -0.172583 0.967630
vn -0.184139 -0.172583 0.967630
vn -0.189887 -0.199221 0.961381
vn -0.207295 -0.283476 0.936307
vn -0.484053 -0.797315 -0.360529
vn -0.484053 -0.797315 -0.360529
vn 0.469295 0.812668 0.345446
vn 0.469295 0.812668 0.345446
vn 0.186821 0.293067 0.937662
vn 0.186821 0.293068 0.937662
vn -0.184782 -0.286592 -0.940064
vn -0.184782 -0.286592 -0.940064
vn -0.388122 -0.787969 0.477982
vn -0.388122 -0.787969 0.477982
vn 0.469436 0.812662 -0.345269
vn 0.469436 0.812662 -0.345269
vn 0.187062 0.293091 -0.937606
vn 0.187062 0.293091 -0.937606
vn -0.196589 -0.363445 0.910637
vn -0.196589 -0.363445 0.910637
vn 0.205539 0.287226 0.935551
vn 0.205539 0.287226 0.935551
vn -0.208882 -0.290887 -0.933677
vn -0.208882 -0.290887 -0.933677
vn 0.615733 0.751225 0.237767
vn 0.615733 0.751225 0.237767
vn -0.619345 -0.748290 -0.237644
vn -0.619344 -0.748290 -0.237644
vn 0.615706 0.751307 -0.237580
vn 0.615706 0.751307 -0.237580
vn -0.619312 -0.748376 0.237458
vn -0.619312 -0.748376 0.237458
vn 0.205419 0.287141 -0.935603
vn 0.205419 0.287141 -0.935603
vn -0.208749 -0.290793 0.933736
vn -0.208749 -0.290793 0.933736
s off
g drainpipe_hole
usemtl aiStandardSurface1SG
f 1/1/1 2/2/2 10/11/3 9/10/4
f 2/2/5 3/3/6 11/12/7 10/11/8
f 3/3/9 4/4/10 12/13/11 11/12/12
f 4/4/13 5/5/14 13/14/15 12/13/16
f 5/5/17 6/6/18 14/15/19 13/14/20
f 6/6/21 7/7/22 15/16/23 14/15/24
f 7/7/25 8/8/26 16/17/27 15/16/28
f 8/8/29 1/9/30 9/18/31 16/17/32
s 1
f 10/24/33 11/23/34 18/28/35 17/27/36
f 11/23/34 12/22/37 19/29/38 18/28/35
f 12/22/37 13/21/39 20/30/40 19/29/38
f 13/21/39 14/20/41 21/31/42 20/30/40
f 14/20/41 15/19/43 22/32/44 21/31/42
f 15/19/43 16/26/45 23/33/46 22/32/44
f 16/26/45 9/25/47 24/34/48 23/33/46
f 9/25/47 10/24/33 17/27/36 24/34/48
s off
f 24/34/49 17/27/50 26/36/51 25/35/52
f 17/27/53 18/28/54 27/37/55 26/36/56
f 18/28/57 19/29/58 28/38/59 27/37/60
f 19/29/61 20/30/62 29/39/63 28/38/64
f 20/30/65 21/31/66 30/40/67 29/39/68
f 21/31/69 22/32/70 31/41/71 30/40/72
f 22/32/73 23/33/74 32/42/75 31/41/76
f 23/33/77 24/34/78 25/35/79 32/42/80
f 33/75/81 34/76/82 35/77/83 36/78/84
f 36/79/85 37/80/86 38/81/87 33/82/88
f 34/83/89 39/84/90 40/85/91 35/86/92
f 41/87/93 40/88/94 39/89/95 42/90/96
f 42/91/97 43/92/98 44/93/99 41/94/100
f 43/95/101 45/96/102 46/97/103 44/98/104
f 45/99/105 47/100/106 48/101/107 46/102/108
f 47/103/109 38/104/110 37/105/111 48/106/112
s 2
f 31/43/113 32/44/114 50/109/115 49/108/116
s 3
f 8/45/117 7/46/118 52/113/119 51/112/120
s 4
f 7/47/121 6/48/122 53/115/123 52/114/124
s 5
f 30/49/125 31/50/126 49/107/127 54/118/128
s 6
f 32/51/129 25/52/130 55/119/131 50/110/132
s 7
f 1/53/133 8/54/134 51/111/135 56/122/136
s 8
f 2/55/137 1/56/138 56/121/139 57/124/140
s 9
f 25/57/141 26/58/142 58/125/143 55/120/144
s 10
f 26/59/145 27/60/146 59/127/147 58/126/148
s 11
f 3/61/149 2/62/150 57/123/151 60/130/152
s 12
f 27/63/153 28/64/154 61/131/155 59/128/156
s 13
f 4/65/157 3/66/158 60/129/159 62/134/160
s 14
f 28/67/161 29/68/162 63/135/163 61/132/164
s 15
f 5/69/165 4/70/166 62/133/167 64/138/168
s 16
f 29/71/169 30/72/170 54/117/171 63/136/172
s 17
f 6/73/173 5/74/174 64/137/175 53/116/176
s 2
f 49/108/116 50/109/115 34/76/177 33/75/178
s 3
f 51/112/120 52/113/119 36/78/179 35/77/180
s 4
f 52/114/124 53/115/123 37/80/181 36/79/182
s 5
f 54/118/128 49/107/127 33/82/183 38/81/184
s 6
f 50/110/132 55/119/131 39/84/185 34/83/186
s 7
f 56/122/136 51/111/135 35/86/187 40/85/188
s 8
f 57/124/140 56/121/139 40/88/189 41/87/190
s 9
f 55/120/144 58/125/143 42/90/191 39/89/192
s 10
f 58/126/148 59/127/147 43/92/193 42/91/194
s 11
f 60/130/152 57/123/151 41/94/195 44/93/196
s 12
f 59/128/156 61/131/155 45/96/197 43/95/198
s 13
f 62/134/160 60/129/159 44/98/199 46/97/200
s 14
f 61/132/164 63/135/163 47/100/201 45/99/202
s 15
f 64/138/168 62/133/167 46/102/203 48/101/204
s 16
f 63/136/172 54/117/171 38/104/205 47/103/206
s 17
f 53/116/176 64/137/175 48/106/207 37/105/208
