# This file uses centimeters as units for non-parametric coordinates.

mtllib newspaper_trash.mtl
g default
v -30.898840 0.995338 30.898840
v -18.539307 0.995338 30.898840
v 12.653678 0.995338 30.898840
v 16.099346 3.930332 30.898840
v 13.600780 6.913663 29.993151
v 3.954629 4.784100 30.821095
v -28.644772 1.617158 29.850502
v -18.539307 2.370636 29.850502
v 12.653678 2.370636 29.850502
v 13.938856 4.892601 30.898840
v 12.758174 5.683176 30.898840
v 2.734528 4.007451 31.726784
v -28.644772 2.420322 18.539307
v -18.539307 3.173800 18.539307
v 12.653678 3.173800 18.539307
v 13.938856 4.892601 18.539307
v 12.758174 5.683176 18.539307
v 2.734528 4.007451 19.367249
v -28.644772 2.420322 6.179769
v -18.539307 3.173800 6.179769
v 12.653678 3.173800 6.179769
v 13.938856 4.892601 6.179769
v 12.758174 5.683176 6.179769
v 2.734528 4.007451 7.007710
v -28.644772 2.420322 -6.179768
v -18.539307 3.173800 -6.179768
v 12.653678 3.173800 -6.179768
v 13.938856 4.892601 -6.179768
v 12.758174 5.683176 -6.179768
v 2.734528 4.007451 -5.351826
v -28.644772 2.420322 -18.539307
v -18.539307 3.173800 -18.539307
v 12.653678 3.173800 -18.539307
v 13.938856 4.892601 -18.539307
v 12.758174 5.683176 -18.539307
v 2.734528 4.007451 -17.711365
v -28.644772 1.509350 -29.898132
v -18.539307 2.262828 -29.898132
v 12.653678 2.262828 -29.898132
v 13.938856 4.892601 -30.898840
v 12.758174 5.683176 -30.898840
v 2.734528 4.007451 -30.070896
v -30.898840 0.995338 -30.898840
v -18.539307 0.995338 -30.898840
v 12.653678 0.995338 -30.898840
v 16.099346 3.930332 -30.898840
v 13.600780 6.750569 -30.136574
v 3.954629 4.621006 -29.308634
v -30.898840 0.995338 -18.539307
v -18.539307 0.995338 -18.539307
v 12.653678 0.995338 -18.539307
v 16.099346 3.930332 -18.539307
v 13.600780 7.317663 -18.539307
v 3.954629 5.188101 -17.711365
v -30.898840 0.995338 -6.179769
v -18.539307 0.995338 -6.179769
v 12.653678 0.995338 -6.179769
v 16.099346 3.930332 -6.179769
v 13.600780 7.317663 -6.179769
v 3.954629 5.188101 -5.351827
v -30.898840 0.995338 6.179768
v -18.539307 0.995338 6.179768
v 12.653678 0.995338 6.179768
v 16.099346 3.930332 6.179768
v 13.600780 7.317663 6.179768
v 3.954629 5.188101 7.007710
v -30.898840 0.995338 18.539307
v -18.539307 0.995338 18.539307
v 12.653678 0.995338 18.539307
v 16.099346 3.930332 18.539307
v 13.600780 7.317663 18.539307
v 3.954629 5.188101 19.367249
v -26.320442 3.240848 -26.665216
v -26.320442 3.807942 -15.067947
v -27.540543 2.627292 -27.427481
v -27.540543 2.627292 -15.067947
v -26.320442 3.807942 -2.708410
v -27.540543 2.627292 -2.708409
v -26.320442 3.807942 9.651127
v -27.540543 2.627292 9.651127
v -26.320442 3.807942 22.010666
v -27.540543 2.627292 22.010666
v -26.320442 3.403941 33.464508
v -27.540543 2.627292 34.370201
vt 0.375000 0.000000
vt 0.425000 0.000000
vt 0.475000 0.000000
vt 0.525000 0.000000
vt 0.575000 0.000000
vt 0.625000 0.000000
vt 0.375000 0.250000
vt 0.425000 0.250000
vt 0.475000 0.250000
vt 0.525000 0.250000
vt 0.575000 0.250000
vt 0.625000 0.250000
vt 0.375000 0.300000
vt 0.425000 0.300000
vt 0.475000 0.300000
vt 0.525000 0.300000
vt 0.575000 0.300000
vt 0.625000 0.300000
vt 0.375000 0.350000
vt 0.425000 0.350000
vt 0.475000 0.350000
vt 0.525000 0.350000
vt 0.575000 0.350000
vt 0.625000 0.350000
vt 0.375000 0.400000
vt 0.425000 0.400000
vt 0.475000 0.400000
vt 0.525000 0.400000
vt 0.575000 0.400000
vt 0.625000 0.400000
vt 0.375000 0.450000
vt 0.425000 0.450000
vt 0.475000 0.450000
vt 0.525000 0.450000
vt 0.575000 0.450000
vt 0.625000 0.450000
vt 0.375000 0.500000
vt 0.425000 0.500000
vt 0.475000 0.500000
vt 0.525000 0.500000
vt 0.575000 0.500000
vt 0.625000 0.500000
vt 0.375000 0.750000
vt 0.425000 0.750000
vt 0.475000 0.750000
vt 0.525000 0.750000
vt 0.575000 0.750000
vt 0.625000 0.750000
vt 0.375000 0.800000
vt 0.425000 0.800000
vt 0.475000 0.800000
vt 0.525000 0.800000
vt 0.575000 0.800000
vt 0.625000 0.800000
vt 0.375000 0.850000
vt 0.425000 0.850000
vt 0.475000 0.850000
vt 0.525000 0.850000
vt 0.575000 0.850000
vt 0.625000 0.850000
vt 0.375000 0.900000
vt 0.425000 0.900000
vt 0.475000 0.900000
vt 0.525000 0.900000
vt 0.575000 0.900000
vt 0.625000 0.900000
vt 0.375000 0.950000
vt 0.425000 0.950000
vt 0.475000 0.950000
vt 0.525000 0.950000
vt 0.575000 0.950000
vt 0.625000 0.950000
vt 0.375000 1.000000
vt 0.425000 1.000000
vt 0.475000 1.000000
vt 0.525000 1.000000
vt 0.575000 1.000000
vt 0.625000 1.000000
vt 0.875000 0.000000
vt 0.825000 0.000000
vt 0.775000 0.000000
vt 0.725000 0.000000
vt 0.675000 0.000000
vt 0.875000 0.250000
vt 0.825000 0.250000
vt 0.775000 0.250000
vt 0.725000 0.250000
vt 0.675000 0.250000
vt 0.125000 0.000000
vt 0.175000 0.000000
vt 0.225000 0.000000
vt 0.275000 0.000000
vt 0.325000 0.000000
vt 0.125000 0.250000
vt 0.175000 0.250000
vt 0.225000 0.250000
vt 0.275000 0.250000
vt 0.325000 0.250000
vt 0.825000 0.000000
vt 0.875000 0.000000
vt 0.875000 0.250000
vt 0.825000 0.250000
vt 0.775000 0.000000
vt 0.775000 0.250000
vt 0.725000 0.000000
vt 0.725000 0.250000
vt 0.675000 0.000000
vt 0.675000 0.250000
vt 0.625000 0.000000
vt 0.625000 0.250000
vn -0.024720 0.737005 0.675435
vn -0.005665 0.637915 0.770086
vn -0.005498 0.636999 0.770845
vn -0.024720 0.737005 0.675435
vn -0.023381 0.579073 0.814940
vn -0.043853 0.554468 0.831049
vn -0.227311 0.182452 0.956578
vn -0.049393 0.290100 0.955721
vn 0.016002 0.637823 0.770016
vn -0.025285 0.671390 0.740673
vn -0.078812 0.711315 0.698441
vn -0.078812 0.711315 0.698441
vn -0.074169 0.994741 0.070633
vn -0.018242 0.997323 0.070816
vn -0.018209 0.999260 0.033891
vn -0.074312 0.996659 0.033876
vn -0.080438 0.994381 0.068815
vn -0.061490 0.997557 0.033150
vn -0.995339 -0.095485 0.013544
vn -0.999553 0.028877 0.007805
vn 0.082619 -0.996581 0.000000
vn 0.078755 -0.996894 0.000000
vn 0.164889 -0.986312 0.000000
vn 0.164889 -0.986312 0.000000
vn -0.018242 0.999834 0.000000
vn -0.074355 0.997232 0.000000
vn -0.052848 0.998603 0.000000
vn -0.999134 0.041606 0.000000
vn 0.078755 -0.996894 0.000000
vn 0.164889 -0.986312 0.000000
vn -0.018242 0.999834 0.000000
vn -0.074355 0.997232 0.000000
vn -0.052848 0.998603 0.000000
vn -0.999134 0.041606 0.000000
vn 0.078755 -0.996894 0.000000
vn 0.164889 -0.986312 0.000000
vn -0.018203 0.999098 -0.038355
vn -0.074300 0.996498 -0.038349
vn -0.062454 0.997343 -0.037517
vn -0.999540 0.029029 -0.008759
vn 0.078755 -0.996894 0.000000
vn 0.164889 -0.986312 0.000000
vn -0.018235 0.996634 -0.079929
vn -0.074118 0.994058 -0.079723
vn -0.080859 0.993691 -0.077714
vn -0.996375 -0.083705 -0.015198
vn 0.074513 -0.997220 0.000000
vn 0.164889 -0.986312 0.000000
vn -0.025518 0.760809 -0.648474
vn -0.005638 0.652947 -0.757383
vn -0.005807 0.653925 -0.756537
vn -0.025518 0.760809 -0.648474
vn -0.044877 0.563527 -0.824878
vn -0.024009 0.590155 -0.806933
vn -0.063267 0.266233 -0.961830
vn -0.235041 0.165015 -0.957876
vn -0.136033 0.739853 -0.658872
vn -0.078279 0.696801 -0.712980
vn -0.200941 0.781851 -0.590196
vn -0.200941 0.781851 -0.590196
vn 0.000000 -1.000000 0.000000
vn 0.000000 -1.000000 0.000000
vn 0.000000 -1.000000 0.000000
vn 0.000000 -1.000000 0.000000
vn 0.084429 -0.996430 0.000000
vn 0.084429 -0.996430 0.000000
vn 0.972385 -0.233217 -0.008762
vn 0.987302 -0.158789 -0.004617
vn 0.130882 0.990494 -0.042337
vn 0.091838 0.995530 -0.022022
vn -0.219230 0.974509 -0.047652
vn -0.217319 0.975855 -0.021918
vn 0.000000 -1.000000 0.000000
vn 0.000000 -1.000000 0.000000
vn 0.084429 -0.996430 0.000000
vn 0.988965 -0.148150 0.000000
vn 0.103014 0.994680 0.000000
vn -0.215577 0.976487 0.000000
vn 0.000000 -1.000000 0.000000
vn 0.000000 -1.000000 0.000000
vn 0.084429 -0.996430 0.000000
vn 0.988965 -0.148150 0.000000
vn 0.103014 0.994680 0.000000
vn -0.215577 0.976487 0.000000
vn 0.000000 -1.000000 0.000000
vn 0.000000 -1.000000 0.000000
vn 0.084429 -0.996430 0.000000
vn 0.987250 -0.159145 0.003273
vn 0.098343 0.995050 0.014309
vn -0.214109 0.976653 0.017526
vn 0.000000 -1.000000 0.000000
vn 0.000000 -1.000000 0.000000
vn 0.084429 -0.996430 0.000000
vn 0.970067 -0.242762 0.006098
vn 0.121416 0.992122 0.030847
vn -0.212629 0.976526 0.034444
vn -0.648046 0.761550 -0.008774
vn -0.588382 0.808357 -0.019135
vn -0.588382 0.808357 -0.019135
vn -0.647467 0.762042 -0.008878
vn -0.695393 0.718630 0.000000
vn -0.695393 0.718630 0.000000
vn -0.695393 0.718629 0.000000
vn -0.695393 0.718629 0.000000
vn -0.662310 0.749205 0.006187
vn -0.662025 0.749456 0.006239
vn -0.622638 0.782397 0.013274
vn -0.622638 0.782397 0.013274
vn -0.388230 0.920883 -0.035369
vn -0.467580 0.883795 -0.016622
vn -0.468583 0.883268 -0.016378
vn -0.388230 0.920883 -0.035369
vn -0.534358 0.845258 0.000000
vn -0.534358 0.845258 0.000000
vn -0.534358 0.845258 0.000000
vn -0.534358 0.845258 0.000000
vn -0.475897 0.879380 0.014596
vn -0.476669 0.878965 0.014407
vn -0.407231 0.912800 0.030972
vn -0.407231 0.912800 0.030972
vn -0.049736 0.997571 -0.048780
vn -0.049736 0.997571 -0.048780
vn -0.049736 0.997571 -0.048780
vn -0.049736 0.997571 -0.048780
vn -0.085228 0.838371 -0.538396
vn -0.085228 0.838371 -0.538396
vn -0.085228 0.838371 -0.538396
vn -0.085228 0.838371 -0.538396
vn 0.045540 -0.998963 0.000000
vn 0.045540 -0.998963 0.000000
vn 0.045540 -0.998963 0.000000
vn 0.045540 -0.998963 0.000000
vn -0.045540 0.998963 0.000000
vn -0.045540 0.998963 0.000000
vn -0.045540 0.998963 0.000000
vn -0.045540 0.998963 0.000000
vn 0.045540 -0.998963 0.000000
vn 0.045540 -0.998963 0.000000
vn 0.045540 -0.998963 0.000000
vn 0.045540 -0.998963 0.000000
vn -0.045540 0.998963 0.000000
vn -0.045540 0.998963 0.000000
vn -0.045540 0.998963 0.000000
vn -0.045540 0.998963 0.000000
vn 0.045540 -0.998963 0.000000
vn 0.045540 -0.998963 0.000000
vn 0.045540 -0.998963 0.000000
vn 0.045540 -0.998963 0.000000
vn -0.045540 0.998963 0.000000
vn -0.045540 0.998963 0.000000
vn -0.045540 0.998963 0.000000
vn -0.045540 0.998963 0.000000
vn 0.045540 -0.998963 0.000000
vn 0.045540 -0.998963 0.000000
vn 0.045540 -0.998963 0.000000
vn 0.045540 -0.998963 0.000000
vn -0.042443 0.998478 0.035218
vn -0.042443 0.998478 0.035218
vn -0.042443 0.998478 0.035218
vn -0.042443 0.998478 0.035218
vn 0.045540 -0.998963 0.000000
vn 0.045540 -0.998963 0.000000
vn 0.045540 -0.998963 0.000000
vn 0.045540 -0.998963 0.000000
vn 0.024635 0.742244 0.669676
vn 0.024635 0.742244 0.669676
vn 0.024635 0.742244 0.669676
vn 0.024635 0.742244 0.669676
s 1
g Newspaper
usemtl initialShadingGroup
f 1/1/1 2/2/2 8/8/3 7/7/4
f 2/2/2 3/3/5 9/9/6 8/8/3
f 3/3/5 4/4/7 10/10/8 9/9/6
f 4/4/7 5/5/9 11/11/10 10/10/8
f 5/5/9 6/6/11 12/12/12 11/11/10
s 2
f 7/7/13 8/8/14 14/14/15 13/13/16
f 8/8/14 9/9/17 15/15/18 14/14/15
f 9/9/17 10/10/19 16/16/20 15/15/18
f 10/10/19 11/11/21 17/17/22 16/16/20
f 11/11/21 12/12/23 18/18/24 17/17/22
f 13/13/16 14/14/15 20/20/25 19/19/26
f 14/14/15 15/15/18 21/21/27 20/20/25
f 15/15/18 16/16/20 22/22/28 21/21/27
f 16/16/20 17/17/22 23/23/29 22/22/28
f 17/17/22 18/18/24 24/24/30 23/23/29
f 19/19/26 20/20/25 26/26/31 25/25/32
f 20/20/25 21/21/27 27/27/33 26/26/31
f 21/21/27 22/22/28 28/28/34 27/27/33
f 22/22/28 23/23/29 29/29/35 28/28/34
f 23/23/29 24/24/30 30/30/36 29/29/35
f 25/25/32 26/26/31 32/32/37 31/31/38
f 26/26/31 27/27/33 33/33/39 32/32/37
f 27/27/33 28/28/34 34/34/40 33/33/39
f 28/28/34 29/29/35 35/35/41 34/34/40
f 29/29/35 30/30/36 36/36/42 35/35/41
f 31/31/38 32/32/37 38/38/43 37/37/44
f 32/32/37 33/33/39 39/39/45 38/38/43
f 33/33/39 34/34/40 40/40/46 39/39/45
f 34/34/40 35/35/41 41/41/47 40/40/46
f 35/35/41 36/36/42 42/42/48 41/41/47
s 3
f 37/37/49 38/38/50 44/44/51 43/43/52
f 38/38/50 39/39/53 45/45/54 44/44/51
f 39/39/53 40/40/55 46/46/56 45/45/54
f 40/40/55 41/41/57 47/47/58 46/46/56
f 41/41/57 42/42/59 48/48/60 47/47/58
s 4
f 43/43/61 44/44/62 50/50/63 49/49/64
f 44/44/62 45/45/65 51/51/66 50/50/63
f 45/45/65 46/46/67 52/52/68 51/51/66
f 46/46/67 47/47/69 53/53/70 52/52/68
f 47/47/69 48/48/71 54/54/72 53/53/70
f 49/49/64 50/50/63 56/56/73 55/55/74
f 50/50/63 51/51/66 57/57/75 56/56/73
f 51/51/66 52/52/68 58/58/76 57/57/75
f 52/52/68 53/53/70 59/59/77 58/58/76
f 53/53/70 54/54/72 60/60/78 59/59/77
f 55/55/74 56/56/73 62/62/79 61/61/80
f 56/56/73 57/57/75 63/63/81 62/62/79
f 57/57/75 58/58/76 64/64/82 63/63/81
f 58/58/76 59/59/77 65/65/83 64/64/82
f 59/59/77 60/60/78 66/66/84 65/65/83
f 61/61/80 62/62/79 68/68/85 67/67/86
f 62/62/79 63/63/81 69/69/87 68/68/85
f 63/63/81 64/64/82 70/70/88 69/69/87
f 64/64/82 65/65/83 71/71/89 70/70/88
f 65/65/83 66/66/84 72/72/90 71/71/89
f 67/67/86 68/68/85 2/74/91 1/73/92
f 68/68/85 69/69/87 3/75/93 2/74/91
f 69/69/87 70/70/88 4/76/94 3/75/93
f 70/70/88 71/71/89 5/77/95 4/76/94
f 71/71/89 72/72/90 6/78/96 5/77/95
s 5
f 74/99/97 73/100/98 75/101/99 76/102/100
f 77/103/101 74/99/97 76/102/100 78/104/102
f 79/105/103 77/103/101 78/104/102 80/106/104
f 81/107/105 79/105/103 80/106/104 82/108/106
f 83/109/107 81/107/105 82/108/106 84/110/108
s 6
f 43/89/109 49/90/110 31/95/111 37/94/112
f 49/90/110 55/91/113 25/96/114 31/95/111
f 55/91/113 61/92/115 19/97/116 25/96/114
f 61/92/115 67/93/117 13/98/118 19/97/116
f 67/93/117 1/1/119 7/7/120 13/98/118
s off
f 54/80/121 48/79/122 73/100/123 74/99/124
f 48/79/125 42/84/126 75/101/127 73/100/128
f 42/84/129 36/85/130 76/102/131 75/101/132
f 60/81/133 54/80/134 74/99/135 77/103/136
f 36/85/137 30/86/138 78/104/139 76/102/140
f 66/82/141 60/81/142 77/103/143 79/105/144
f 30/86/145 24/87/146 80/106/147 78/104/148
f 72/83/149 66/82/150 79/105/151 81/107/152
f 24/87/153 18/88/154 82/108/155 80/106/156
f 6/6/157 72/83/158 81/107/159 83/109/160
f 18/88/161 12/12/162 84/110/163 82/108/164
f 12/12/165 6/6/166 83/109/167 84/110/168
