# This file uses centimeters as units for non-parametric coordinates.

mtllib Trashcan2.mtl
g default
v -23.722687 -1.404518 14.153632
v 23.722687 -1.404518 14.153632
v -29.696295 57.988072 20.111378
v 29.696295 57.988072 20.111378
v -29.696295 57.988072 -20.111378
v 29.696295 57.988072 -20.111378
v -23.722687 -1.404518 -14.153632
v 23.722687 -1.404518 -14.153632
v 0.000000 -1.404518 17.984262
v 0.000000 -1.404518 -18.671819
v 0.000000 57.988072 -22.717358
v 0.000000 57.988072 22.029794
v 0.000000 57.988072 -19.116247
v 0.000000 57.988072 18.428686
v 24.916565 57.988072 16.819044
v 24.916565 57.988072 -16.929709
v -24.916565 57.988072 16.819044
v -24.916565 57.988072 -16.929709
v 0.000000 20.242236 -15.799869
v 0.000000 20.242236 15.112308
v 20.514758 20.242236 13.787028
v 20.514758 20.242236 -13.999608
v -20.514758 20.242236 13.787028
v -20.514758 20.242236 -13.999608
v -24.320048 4.534742 14.749406
v 0.000000 4.534742 18.388816
v 24.320048 4.534742 14.749406
v 24.320048 4.534742 -14.749406
v 0.000000 4.534742 -19.076373
v -24.320048 4.534742 -14.749406
vt 0.375000 0.000000
vt 0.625000 0.000000
vt 0.375000 0.250000
vt 0.625000 0.250000
vt 0.375000 0.500000
vt 0.625000 0.500000
vt 0.375000 0.750000
vt 0.625000 0.750000
vt 0.375000 1.000000
vt 0.625000 1.000000
vt 0.875000 0.000000
vt 0.875000 0.250000
vt 0.125000 0.000000
vt 0.125000 0.250000
vt 0.500000 0.000000
vt 0.500000 1.000000
vt 0.500000 0.750000
vt 0.500000 0.500000
vt 0.500000 0.250000
vt 0.500000 0.250000
vt 0.625000 0.250000
vt 0.625000 0.500000
vt 0.500000 0.500000
vt 0.375000 0.250000
vt 0.375000 0.500000
vt 0.500000 0.250000
vt 0.625000 0.250000
vt 0.625000 0.500000
vt 0.500000 0.500000
vt 0.375000 0.250000
vt 0.375000 0.500000
vt 0.375000 0.025000
vt 0.500000 0.025000
vt 0.625000 0.025000
vt 0.625000 0.725000
vt 0.875000 0.025000
vt 0.500000 0.725000
vt 0.125000 0.025000
vt 0.375000 0.725000
vn 0.000000 -0.089033 0.996029
vn 0.000000 -0.089262 0.996008
vn 0.106243 -0.088745 0.990372
vn 0.101949 -0.088569 0.990839
vn 0.000000 1.000000 0.000000
vn 0.000000 1.000000 0.000000
vn 0.000000 1.000000 0.000000
vn 0.000000 1.000000 0.000000
vn 0.131339 -0.089746 -0.987267
vn -0.000000 -0.090539 -0.995893
vn 0.000000 -0.090297 -0.995915
vn 0.126793 -0.089569 -0.987877
vn 0.000000 -1.000000 0.000000
vn 0.000000 -1.000000 0.000000
vn 0.000000 -1.000000 0.000000
vn 0.000000 -1.000000 0.000000
vn 0.994980 -0.100073 0.000000
vn 0.994980 -0.100073 0.000000
vn 0.994980 -0.100073 0.000000
vn 0.994980 -0.100073 0.000000
vn -0.994980 -0.100073 0.000000
vn -0.994980 -0.100073 0.000000
vn -0.994980 -0.100073 0.000000
vn -0.994980 -0.100073 0.000000
vn 0.000000 -1.000000 0.000000
vn 0.000000 -1.000000 0.000000
vn -0.126793 -0.089569 -0.987877
vn -0.131339 -0.089746 -0.987267
vn 0.000000 1.000000 0.000000
vn 0.000000 1.000000 0.000000
vn -0.106243 -0.088745 0.990372
vn -0.101949 -0.088569 0.990839
vn 0.000000 1.000000 0.000000
vn 0.000000 1.000000 0.000000
vn 0.000000 1.000000 0.000000
vn 0.000000 1.000000 0.000000
vn 0.000000 1.000000 0.000000
vn 0.000000 1.000000 0.000000
vn 0.000000 1.000000 0.000000
vn 0.000000 1.000000 0.000000
vn 0.000000 1.000000 0.000000
vn 0.000000 1.000000 0.000000
vn 0.000000 1.000000 0.000000
vn 0.000000 1.000000 0.000000
vn 0.000000 1.000000 0.000000
vn 0.000000 1.000000 0.000000
vn 0.000000 1.000000 0.000000
vn 0.000000 1.000000 0.000000
vn 0.000000 1.000000 0.000000
vn 0.000000 1.000000 0.000000
vn 0.000000 1.000000 0.000000
vn 0.000000 1.000000 0.000000
vn 0.000000 1.000000 0.000000
vn 0.000000 1.000000 0.000000
vn 0.000000 1.000000 0.000000
vn 0.000000 1.000000 0.000000
vn -0.064221 0.087343 -0.994106
vn -0.064221 0.087343 -0.994106
vn -0.064221 0.087343 -0.994106
vn -0.064221 0.087343 -0.994106
vn -0.993269 0.115832 0.000000
vn -0.993269 0.115832 0.000000
vn -0.993269 0.115832 0.000000
vn -0.993269 0.115832 0.000000
vn -0.087086 0.087191 0.992378
vn -0.087086 0.087191 0.992378
vn -0.087086 0.087191 0.992378
vn -0.087086 0.087191 0.992378
vn 0.064221 0.087343 -0.994106
vn 0.064221 0.087343 -0.994106
vn 0.064221 0.087343 -0.994106
vn 0.064221 0.087343 -0.994106
vn 0.087086 0.087191 0.992378
vn 0.087086 0.087191 0.992378
vn 0.087086 0.087191 0.992378
vn 0.087086 0.087191 0.992378
vn 0.993269 0.115832 0.000000
vn 0.993269 0.115832 0.000000
vn 0.993269 0.115832 0.000000
vn 0.993269 0.115832 0.000000
vn -0.153010 -0.090566 0.984066
vn 0.000000 -0.091645 0.995792
vn 0.153010 -0.090566 0.984066
vn 0.994980 -0.100073 0.000000
vn 0.994980 -0.100073 0.000000
vn -0.000000 -0.093066 -0.995660
vn 0.180307 -0.091541 -0.979341
vn -0.180307 -0.091541 -0.979341
vn -0.994980 -0.100073 0.000000
vn -0.994980 -0.100073 0.000000
s 1
g Bin Trashbin
usemtl initialShadingGroup
f 12/19/1 26/33/2 27/34/3 4/4/4
s 2
f 19/29/5 20/26/6 21/27/7 22/28/8
s 3
f 28/35/9 29/37/10 11/18/11 6/6/12
s 4
f 9/16/13 10/17/14 8/8/15 2/10/16
s 5
f 27/34/17 28/36/18 6/12/19 4/4/20
s 6
f 30/38/21 25/32/22 3/3/23 5/14/24
s 4
f 7/7/25 10/17/14 9/16/13 1/9/26
s 3
f 5/5/27 11/18/11 29/37/10 30/39/28
s 2
f 23/30/29 20/26/6 19/29/5 24/31/30
s 1
f 25/32/31 26/33/2 12/19/1 3/3/32
s off
f 12/19/33 4/4/34 15/21/35 14/20/36
f 4/4/37 6/6/38 16/22/39 15/21/40
f 6/6/41 11/18/42 13/23/43 16/22/44
f 3/3/45 12/19/46 14/20/47 17/24/48
f 11/18/49 5/5/50 18/25/51 13/23/52
f 5/5/53 3/3/54 17/24/55 18/25/56
f 14/20/57 15/21/58 21/27/59 20/26/60
f 15/21/61 16/22/62 22/28/63 21/27/64
f 16/22/65 13/23/66 19/29/67 22/28/68
f 17/24/69 14/20/70 20/26/71 23/30/72
f 13/23/73 18/25/74 24/31/75 19/29/76
f 18/25/77 17/24/78 23/30/79 24/31/80
s 1
f 1/1/81 9/15/82 26/33/2 25/32/31
f 27/34/3 26/33/2 9/15/82 2/2/83
s 5
f 2/2/84 8/11/85 28/36/18 27/34/17
s 3
f 10/17/86 29/37/10 28/35/9 8/8/87
f 30/39/28 29/37/10 10/17/86 7/7/88
s 6
f 7/13/89 1/1/90 25/32/22 30/38/21
g default
v -31.097780 58.849418 22.225229
v 31.097780 58.849418 22.225229
v -21.877182 83.949270 15.635375
v 21.877182 83.949270 15.635375
v -21.877182 83.949270 -15.635375
v 21.877182 83.949270 -15.635375
v -31.097780 58.849418 -22.225229
v 31.097780 58.849418 -22.225229
v -18.658669 58.849418 22.225229
v -18.658669 58.849418 -22.225229
v -13.126307 84.866348 -15.635375
v -13.126307 84.866348 15.635375
v 16.170845 58.849418 22.225229
v 11.376134 84.866348 15.635375
v 11.376134 84.866348 -15.635375
v 16.170845 58.849418 -22.225229
v -25.000992 77.375074 17.867927
v -15.000596 77.375074 18.615840
v 13.000516 77.375074 18.615840
v 25.000992 77.375074 17.867927
v 25.000992 77.375074 -17.867927
v 13.000517 77.375074 -18.615840
v -15.000596 77.375074 -18.615840
v -25.000992 77.375074 -17.867927
v -30.360130 60.857407 21.698042
v -18.216080 60.857407 22.606279
v 15.787265 60.857407 22.606279
v 30.360130 60.857407 21.698042
v 30.360130 60.857407 -21.698044
v 15.787269 60.857407 -22.606279
v -18.216080 60.857407 -22.606279
v -30.360130 60.857407 -21.698044
v 15.787269 60.857407 -22.606282
v -18.216080 60.857407 -22.606282
v -15.000596 77.375074 -18.615842
v 13.000517 77.375074 -18.615842
v 15.787269 60.857407 -8.036328
v -18.216080 60.857407 -8.036328
v -15.000596 77.375074 -4.045889
v 13.000517 77.375074 -4.045889
vt 0.375000 0.000000
vt 0.625000 0.000000
vt 0.375000 0.250000
vt 0.625000 0.250000
vt 0.375000 0.500000
vt 0.625000 0.500000
vt 0.375000 0.750000
vt 0.625000 0.750000
vt 0.375000 1.000000
vt 0.625000 1.000000
vt 0.875000 0.000000
vt 0.875000 0.250000
vt 0.125000 0.000000
vt 0.125000 0.250000
vt 0.425000 0.000000
vt 0.425000 1.000000
vt 0.425000 0.750000
vt 0.425000 0.500000
vt 0.425000 0.250000
vt 0.565000 0.000000
vt 0.565000 1.000000
vt 0.565000 0.250000
vt 0.565000 0.500000
vt 0.565000 0.750000
vt 0.375000 0.200000
vt 0.425000 0.200000
vt 0.565000 0.200000
vt 0.625000 0.200000
vt 0.625000 0.550000
vt 0.875000 0.200000
vt 0.565000 0.550000
vt 0.425000 0.550000
vt 0.125000 0.200000
vt 0.375000 0.550000
vt 0.375000 0.020000
vt 0.425000 0.020000
vt 0.565000 0.020000
vt 0.625000 0.020000
vt 0.625000 0.730000
vt 0.875000 0.020000
vt 0.565000 0.730000
vt 0.425000 0.730000
vt 0.125000 0.020000
vt 0.375000 0.730000
vt 0.565000 0.730000
vt 0.425000 0.730000
vt 0.425000 0.550000
vt 0.565000 0.550000
vt 0.565000 0.730000
vt 0.425000 0.730000
vt 0.425000 0.550000
vt 0.565000 0.550000
vn -0.010634 0.368681 0.929495
vn -0.017108 0.273842 0.961622
vn 0.016340 0.273394 0.961763
vn 0.010648 0.367649 0.929904
vn -0.027568 0.999620 0.000000
vn -0.027568 0.999620 0.000000
vn 0.026191 0.999657 0.000000
vn 0.026191 0.999657 0.000000
vn 0.033996 0.314569 -0.948626
vn -0.037870 0.320574 -0.946466
vn -0.010634 0.368681 -0.929495
vn 0.010648 0.367649 -0.929904
vn 0.000000 -1.000000 0.000000
vn 0.000000 -1.000000 0.000000
vn 0.000000 -1.000000 0.000000
vn 0.000000 -1.000000 0.000000
vn 0.941703 0.336445 0.000000
vn 0.941703 0.336445 0.000000
vn 0.903221 0.429176 0.000000
vn 0.903221 0.429176 0.000000
vn -0.941703 0.336445 0.000000
vn -0.941703 0.336445 0.000000
vn -0.903221 0.429176 0.000000
vn -0.903221 0.429176 0.000000
vn 0.000000 -1.000000 0.000000
vn 0.000000 -1.000000 0.000000
vn -0.054891 0.364092 -0.929744
vn -0.068236 0.275510 -0.958873
vn -0.104228 0.994554 0.000000
vn -0.104228 0.994554 0.000000
vn -0.068236 0.275510 0.958873
vn -0.054891 0.364092 0.929744
vn 0.056926 0.272036 0.960602
vn 0.045664 0.360679 0.931572
vn 0.087001 0.996208 0.000000
vn 0.087001 0.996208 0.000000
vn 0.056926 0.272036 -0.960602
vn 0.045664 0.360679 -0.931572
vn 0.000000 -1.000000 0.000000
vn 0.000000 -1.000000 0.000000
vn -0.067784 0.221748 0.972745
vn -0.019061 0.194953 0.980627
vn 0.017956 0.195784 0.980483
vn 0.056562 0.218311 0.974239
vn 0.949536 0.313658 0.000000
vn 0.949536 0.313658 0.000000
vn 0.056562 0.218310 -0.974239
vn 0.045376 0.135285 -0.989767
vn -0.052192 0.124503 -0.990846
vn -0.067784 0.221748 -0.972745
vn -0.949536 0.313658 0.000000
vn -0.949536 0.313658 0.000000
vn -0.036879 0.047162 0.998206
vn -0.010412 -0.121553 0.992530
vn 0.009769 -0.114035 0.993429
vn 0.030742 0.044918 0.998518
vn 0.938667 0.344826 0.000000
vn 0.938667 0.344826 0.000000
vn 0.009769 -0.114035 -0.993429
vn 0.030742 0.044918 -0.998518
vn -0.010412 -0.121553 -0.992530
vn -0.036879 0.047162 -0.998206
vn -0.938667 0.344825 0.000000
vn -0.938667 0.344825 0.000000
vn 0.000000 -1.000000 0.000000
vn 0.000000 -1.000000 0.000000
vn 0.000000 -1.000000 0.000000
vn 0.000000 -1.000000 0.000000
vn -0.974856 0.222834 0.000000
vn -0.974856 0.222834 0.000000
vn -0.974856 0.222834 0.000000
vn -0.974856 0.222834 0.000000
vn 0.000000 1.000000 0.000000
vn 0.000000 1.000000 0.000000
vn 0.000000 1.000000 0.000000
vn 0.000000 1.000000 0.000000
vn 0.976972 0.213369 0.000000
vn 0.976972 0.213369 0.000000
vn 0.976972 0.213369 0.000000
vn 0.976972 0.213369 0.000000
vn 0.000000 1.000000 0.000000
vn 0.000000 1.000000 0.000000
vn 0.000000 1.000000 0.000000
vn 0.000000 1.000000 0.000000
vn 0.981574 -0.191082 0.000000
vn 0.981574 -0.191082 0.000000
vn 0.981574 -0.191082 0.000000
vn 0.981574 -0.191082 0.000000
vn 0.000000 -1.000000 0.000000
vn 0.000000 -1.000000 0.000000
vn 0.000000 -1.000000 0.000000
vn 0.000000 -1.000000 0.000000
vn -0.986065 -0.166362 0.000000
vn -0.986065 -0.166362 0.000000
vn -0.986065 -0.166362 0.000000
vn -0.986065 -0.166362 0.000000
s 1
g Trashbin Lid
usemtl initialShadingGroup
f 42/58/91 48/65/92 49/66/93 44/61/94
s 2
f 41/57/95 42/58/96 44/61/97 45/62/98
s 3
f 52/70/99 53/71/100 41/57/101 45/62/102
s 4
f 39/55/103 40/56/104 46/63/105 43/60/106
s 5
f 50/67/107 51/69/108 36/51/109 34/43/110
s 6
f 54/72/111 47/64/112 33/42/113 35/53/114
s 4
f 37/46/115 40/56/104 39/55/103 31/48/116
s 3
f 35/44/117 41/57/101 53/71/100 54/73/118
s 2
f 33/42/119 42/58/96 41/57/95 35/44/120
s 1
f 47/64/121 48/65/92 42/58/91 33/42/122
f 44/61/94 49/66/93 50/67/123 34/43/124
s 2
f 45/62/98 44/61/97 34/43/125 36/45/126
s 3
f 51/68/127 52/70/99 45/62/102 36/45/128
s 4
f 43/60/106 46/63/105 38/47/129 32/49/130
s 1
f 55/74/131 56/75/132 48/65/92 47/64/121
f 49/66/93 48/65/92 56/75/132 57/76/133
f 50/67/123 49/66/93 57/76/133 58/77/134
s 5
f 58/77/135 59/79/136 51/69/108 50/67/107
s 3
f 59/78/137 60/80/138 52/70/99 51/68/127
f 54/73/118 53/71/100 61/81/139 62/83/140
s 6
f 62/82/141 55/74/142 47/64/112 54/72/111
s 1
f 31/40/143 39/54/144 56/75/132 55/74/131
f 57/76/133 56/75/132 39/54/144 43/59/145
f 58/77/134 57/76/133 43/59/145 32/41/146
s 5
f 32/41/147 38/50/148 59/79/136 58/77/135
s 3
f 46/63/149 60/80/138 59/78/137 38/47/150
f 40/56/151 61/81/139 60/80/138 46/63/149
f 62/83/140 61/81/139 40/56/151 37/46/152
s 6
f 37/52/153 31/40/154 55/74/142 62/82/141
s off
f 60/80/155 61/81/156 64/85/157 63/84/158
f 61/81/159 53/71/160 65/86/161 64/85/162
f 53/71/163 52/70/164 66/87/165 65/86/166
f 52/70/167 60/80/168 63/84/169 66/87/170
f 63/84/171 64/85/172 68/89/173 67/88/174
f 64/85/175 65/86/176 69/90/177 68/89/178
f 65/86/179 66/87/180 70/91/181 69/90/182
f 66/87/183 63/84/184 67/88/185 70/91/186
