# This file uses centimeters as units for non-parametric coordinates.

mtllib Trashcan3.mtl
g default
v -9.658419 3.514685 28.771852
v 57.343436 3.514685 28.771852
v -15.695629 125.375589 36.887686
v 63.380646 125.375589 36.887686
v -15.695629 125.375589 -42.188589
v 63.380646 125.375589 -42.188589
v -9.658419 3.514685 -36.151379
v 57.343436 3.514685 -36.151379
v -9.658419 85.431619 28.771852
v 57.343436 85.431619 28.771852
v 57.343436 85.431619 -36.151379
v -9.658419 85.431619 -36.151379
v -14.831178 93.230711 -41.324137
v 62.516194 93.230711 -41.324137
v 62.516194 93.230711 36.023235
v -14.831178 93.230711 36.023235
v -15.522737 118.946616 -42.015697
v 63.207754 118.946616 -42.015697
v 63.207754 118.946616 36.714794
v -15.522737 118.946616 36.714794
v -20.727026 122.989951 -47.219985
v 68.412042 122.989951 -47.219985
v 68.239150 116.560986 -47.047093
v -20.554134 116.560986 -47.047093
v 68.239150 116.560986 41.746191
v 68.412042 122.989951 41.919082
v -20.554134 116.560986 41.746191
v -20.727026 122.989951 41.919082
v -17.752935 122.989951 -58.540142
v 65.437952 122.989951 -58.540142
v 65.276598 116.560986 -58.367250
v -17.591581 116.560986 -58.367250
v 3.947924 10.938397 30.850476
v 43.737092 10.938397 30.850476
v 43.737092 78.580380 30.850476
v 3.947924 78.580380 30.850476
v 9.857616 16.136399 28.385938
v 37.827401 16.136399 28.385938
v 37.827401 73.463190 28.385938
v 9.857616 73.463190 28.385938
v -6.631687 131.139591 27.823744
v 54.316704 131.139591 27.823744
v 54.316704 131.139591 -33.124647
v -6.631687 131.139591 -33.124647
v 72.378887 106.604041 50.335457
v -24.693870 106.604041 50.335457
v 72.567901 113.033013 50.508348
v -24.882884 113.033013 50.508348
vt 0.375000 0.000000
vt 0.625000 0.000000
vt 0.375000 0.250000
vt 0.625000 0.250000
vt 0.375000 0.500000
vt 0.625000 0.500000
vt 0.375000 0.750000
vt 0.625000 0.750000
vt 0.375000 1.000000
vt 0.625000 1.000000
vt 0.875000 0.000000
vt 0.875000 0.250000
vt 0.125000 0.000000
vt 0.125000 0.250000
vt 0.375000 0.175000
vt 0.625000 0.175000
vt 0.625000 0.575000
vt 0.875000 0.175000
vt 0.125000 0.175000
vt 0.375000 0.575000
vt 0.125000 0.182500
vt 0.375000 0.567500
vt 0.625000 0.567500
vt 0.875000 0.182500
vt 0.625000 0.182500
vt 0.375000 0.182500
vt 0.125000 0.236500
vt 0.375000 0.513500
vt 0.625000 0.513500
vt 0.875000 0.236500
vt 0.625000 0.236500
vt 0.375000 0.236500
vt 0.375000 0.500000
vt 0.625000 0.500000
vt 0.625000 0.513500
vt 0.375000 0.513500
vt 0.625000 0.236500
vt 0.875000 0.236500
vt 0.875000 0.250000
vt 0.625000 0.250000
vt 0.375000 0.236500
vt 0.375000 0.250000
vt 0.125000 0.236500
vt 0.125000 0.250000
vt 0.375000 0.500000
vt 0.625000 0.500000
vt 0.625000 0.513500
vt 0.375000 0.513500
vt 0.375000 0.000000
vt 0.625000 0.000000
vt 0.625000 0.175000
vt 0.375000 0.175000
vt 0.375000 0.000000
vt 0.625000 0.000000
vt 0.625000 0.175000
vt 0.375000 0.175000
vt 0.375000 0.250000
vt 0.625000 0.250000
vt 0.625000 0.500000
vt 0.375000 0.500000
vt 0.375000 0.236500
vt 0.625000 0.236500
vt 0.625000 0.250000
vt 0.375000 0.250000
vn 0.000000 -0.680923 0.732355
vn 0.000000 -0.680923 0.732355
vn 0.000000 -0.172476 0.985014
vn 0.000000 -0.172476 0.985014
vn 0.000000 1.000000 0.000000
vn 0.000000 1.000000 0.000000
vn 0.000000 1.000000 0.000000
vn 0.000000 1.000000 0.000000
vn 0.000000 -0.126183 -0.992007
vn 0.000000 -0.126183 -0.992007
vn 0.000000 -0.078912 -0.996882
vn 0.000000 -0.078912 -0.996882
vn 0.000000 -1.000000 0.000000
vn 0.000000 -1.000000 0.000000
vn 0.000000 -1.000000 0.000000
vn 0.000000 -1.000000 0.000000
vn 0.996360 -0.085243 0.000000
vn 0.996787 -0.080094 0.000000
vn 0.992158 -0.124993 0.000000
vn 0.993610 -0.112867 0.000000
vn -0.996787 -0.080094 0.000000
vn -0.996360 -0.085243 0.000000
vn -0.993610 -0.112867 0.000000
vn -0.992158 -0.124992 0.000000
vn 0.000000 0.000000 1.000000
vn 0.000000 0.000000 1.000000
vn 0.000000 0.000000 1.000000
vn 0.000000 0.000000 1.000000
vn 1.000000 0.000000 0.000000
vn 1.000000 0.000000 0.000000
vn 0.000000 0.000000 -1.000000
vn 0.000000 0.000000 -1.000000
vn -1.000000 0.000000 0.000000
vn -1.000000 0.000000 0.000000
vn 0.000000 -0.026883 -0.999639
vn 0.000000 -0.026883 -0.999639
vn 0.999639 -0.026882 0.000000
vn 0.999639 -0.026882 0.000000
vn 0.000000 -0.026883 0.999639
vn 0.000000 -0.026883 0.999639
vn -0.999639 -0.026882 0.000000
vn -0.999639 -0.026882 0.000000
vn 0.000000 -0.026883 -0.999639
vn 0.000000 -0.026883 -0.999639
vn 0.000000 -0.026883 -0.999639
vn 0.000000 -0.026883 -0.999639
vn 0.999639 -0.026883 0.000000
vn 0.999639 -0.026883 0.000000
vn 0.999639 -0.026883 0.000000
vn 0.999639 -0.026883 0.000000
vn 0.000000 -0.026883 0.999639
vn 0.000000 -0.026883 0.999639
vn 0.000000 -0.026883 0.999639
vn 0.000000 -0.026883 0.999639
vn -0.999639 -0.026883 0.000000
vn -0.999639 -0.026883 0.000000
vn -0.999639 -0.026883 0.000000
vn -0.999639 -0.026883 0.000000
vn -0.224778 0.948130 -0.224778
vn 0.224778 0.948130 -0.224778
vn 0.224778 0.948130 -0.224778
vn -0.224778 0.948130 -0.224778
vn -0.224777 -0.948130 0.224777
vn 0.224777 -0.948130 0.224777
vn 0.224777 -0.948130 0.224777
vn -0.224777 -0.948130 0.224777
vn -0.224777 -0.948130 -0.224777
vn -0.224777 -0.948130 -0.224777
vn 0.224778 0.948130 0.224778
vn 0.224778 0.948130 0.224778
vn 0.224777 -0.948130 -0.224777
vn 0.224777 -0.948130 -0.224777
vn -0.224778 0.948130 0.224778
vn -0.224778 0.948130 0.224778
vn 0.000000 1.000000 0.000000
vn 0.000000 1.000000 0.000000
vn 0.000000 1.000000 0.000000
vn 0.000000 1.000000 0.000000
vn 0.966805 -0.031950 -0.253511
vn 0.966805 -0.031950 -0.253511
vn 0.966805 -0.031950 -0.253511
vn 0.966805 -0.031950 -0.253511
vn 0.000000 -1.000000 -0.000000
vn 0.000000 -1.000000 -0.000000
vn 0.000000 -1.000000 -0.000000
vn 0.000000 -1.000000 -0.000000
vn -0.966805 -0.031950 -0.253511
vn -0.966805 -0.031950 -0.253511
vn -0.966805 -0.031950 -0.253511
vn -0.966805 -0.031950 -0.253511
vn 0.000000 -0.269628 0.962965
vn 0.000000 -0.269628 0.962965
vn 0.000000 -0.269628 0.962965
vn 0.000000 -0.269628 0.962965
vn 0.151017 0.000000 0.988531
vn 0.151017 0.000000 0.988531
vn 0.151017 0.000000 0.988531
vn 0.151017 0.000000 0.988531
vn 0.000000 0.290326 0.956928
vn 0.000000 0.290326 0.956928
vn 0.000000 0.290326 0.956928
vn 0.000000 0.290326 0.956928
vn -0.151017 0.000000 0.988531
vn -0.151017 0.000000 0.988531
vn -0.151017 0.000000 0.988531
vn -0.151017 0.000000 0.988531
vn 0.000000 0.428417 0.903581
vn 0.000000 0.428417 0.903581
vn 0.000000 0.428417 0.903581
vn 0.000000 0.428417 0.903581
vn -0.384904 0.000000 0.922957
vn -0.384904 0.000000 0.922957
vn -0.384904 0.000000 0.922957
vn -0.384904 0.000000 0.922957
vn 0.000000 -0.433916 0.900953
vn 0.000000 -0.433916 0.900953
vn 0.000000 -0.433916 0.900953
vn 0.000000 -0.433916 0.900953
vn 0.384904 0.000000 0.922957
vn 0.384904 0.000000 0.922957
vn 0.384904 0.000000 0.922957
vn 0.384904 0.000000 0.922957
vn 0.000000 0.843828 0.536613
vn 0.000000 0.843828 0.536613
vn 0.000000 0.843828 0.536613
vn 0.000000 0.843828 0.536613
vn 0.536613 0.843828 0.000000
vn 0.536613 0.843828 0.000000
vn 0.536613 0.843828 0.000000
vn 0.536613 0.843828 0.000000
vn 0.000000 0.843828 -0.536613
vn 0.000000 0.843828 -0.536613
vn 0.000000 0.843828 -0.536613
vn 0.000000 0.843828 -0.536613
vn -0.536613 0.843828 0.000000
vn -0.536613 0.843828 0.000000
vn -0.536613 0.843828 0.000000
vn -0.536613 0.843828 0.000000
vn 0.000000 -0.653188 -0.757196
vn 0.000000 -0.653188 -0.757196
vn 0.000000 -0.653188 -0.757196
vn 0.000000 -0.653188 -0.757196
vn 0.894369 -0.013149 -0.447138
vn 0.894369 -0.013149 -0.447138
vn 0.894369 -0.013149 -0.447137
vn 0.894369 -0.013149 -0.447138
vn 0.000000 0.653188 0.757196
vn 0.000000 0.653188 0.757196
vn 0.000000 0.653188 0.757196
vn 0.000000 0.653188 0.757196
vn -0.894369 -0.013149 -0.447138
vn -0.894369 -0.013149 -0.447138
vn -0.894369 -0.013149 -0.447138
vn -0.894369 -0.013149 -0.447137
s 1
g Bin Trashcan
usemtl initialShadingGroup
f 9/15/1 10/16/2 15/25/3 16/26/4
s off
f 41/57/5 42/58/6 43/59/7 44/60/8
s 2
f 13/22/9 14/23/10 11/17/11 12/20/12
s off
f 7/7/13 8/8/14 2/10/15 1/9/16
s 3
f 10/16/17 11/18/18 14/24/19 15/25/20
s 4
f 12/19/21 9/15/22 16/26/23 13/21/24
s off
f 37/53/25 38/54/26 39/55/27 40/56/28
s 3
f 2/2/29 8/11/30 11/18/18 10/16/17
s 2
f 12/20/12 11/17/11 8/8/31 7/7/32
s 4
f 7/13/33 1/1/34 9/15/22 12/19/21
s 2
f 17/28/35 18/29/36 14/23/10 13/22/9
s 3
f 15/25/20 14/24/19 18/30/37 19/31/38
s 1
f 16/26/4 15/25/3 19/31/39 20/32/40
s 4
f 13/21/24 16/26/23 20/32/41 17/27/42
s off
f 29/45/43 30/46/44 31/47/45 32/48/46
f 25/37/47 23/38/48 22/39/49 26/40/50
f 46/61/51 45/62/52 47/63/53 48/64/54
f 24/43/55 27/41/56 28/42/57 21/44/58
s 5
f 5/5/59 6/6/60 22/34/61 21/33/62
s 6
f 18/29/63 17/28/64 24/36/65 23/35/66
f 19/31/67 18/30/63 23/38/66 25/37/68
s 5
f 6/12/60 4/4/69 26/40/70 22/39/61
s 6
f 20/32/71 19/31/67 25/37/68 27/41/72
s 5
f 4/4/69 3/3/73 28/42/74 26/40/70
s 6
f 17/27/64 20/32/71 27/41/72 24/43/65
s 5
f 3/3/73 5/14/59 21/44/62 28/42/74
s off
f 21/33/75 22/34/76 30/46/77 29/45/78
f 22/34/79 23/35/80 31/47/81 30/46/82
f 23/35/83 24/36/84 32/48/85 31/47/86
f 24/36/87 21/33/88 29/45/89 32/48/90
f 1/1/91 2/2/92 34/50/93 33/49/94
f 2/2/95 10/16/96 35/51/97 34/50/98
f 10/16/99 9/15/100 36/52/101 35/51/102
f 9/15/103 1/1/104 33/49/105 36/52/106
f 33/49/107 34/50/108 38/54/109 37/53/110
f 34/50/111 35/51/112 39/55/113 38/54/114
f 35/51/115 36/52/116 40/56/117 39/55/118
f 36/52/119 33/49/120 37/53/121 40/56/122
f 3/3/123 4/4/124 42/58/125 41/57/126
f 4/4/127 6/6/128 43/59/129 42/58/130
f 6/6/131 5/5/132 44/60/133 43/59/134
f 5/5/135 3/3/136 41/57/137 44/60/138
f 27/41/139 25/37/140 45/62/141 46/61/142
f 25/37/143 26/40/144 47/63/145 45/62/146
f 26/40/147 28/42/148 48/64/149 47/63/150
f 28/42/151 27/41/152 46/61/153 48/64/154
g default
v -13.060703 26.715423 -22.647538
v -13.060703 32.390798 -14.836054
v -13.060703 32.390796 -5.180529
v -13.060703 26.715420 2.630954
v -13.060703 17.532471 5.614674
v -13.060703 8.349522 2.630952
v -13.060703 2.674148 -5.180532
v -13.060703 2.674149 -14.836055
v -13.060703 8.349524 -22.647537
v -13.060703 17.532472 -25.631258
v -7.322302 26.715423 -22.647538
v -7.322302 32.390798 -14.836054
v -7.322302 32.390796 -5.180529
v -7.322302 26.715420 2.630954
v -7.322302 17.532471 5.614674
v -7.322302 8.349522 2.630952
v -7.322302 2.674148 -5.180532
v -7.322302 2.674149 -14.836055
v -7.322302 8.349524 -22.647537
v -7.322302 17.532472 -25.631258
v -13.060703 17.532472 -10.008293
v -7.322302 17.532472 -10.008293
vt 0.626409 0.064409
vt 0.548284 0.007647
vt 0.451716 0.007647
vt 0.373591 0.064409
vt 0.343750 0.156250
vt 0.373591 0.248091
vt 0.451716 0.304853
vt 0.548284 0.304853
vt 0.626409 0.248091
vt 0.656250 0.156250
vt 0.375000 0.312500
vt 0.400000 0.312500
vt 0.425000 0.312500
vt 0.450000 0.312500
vt 0.475000 0.312500
vt 0.500000 0.312500
vt 0.525000 0.312500
vt 0.550000 0.312500
vt 0.575000 0.312500
vt 0.600000 0.312500
vt 0.625000 0.312500
vt 0.375000 0.688440
vt 0.400000 0.688440
vt 0.425000 0.688440
vt 0.450000 0.688440
vt 0.475000 0.688440
vt 0.500000 0.688440
vt 0.525000 0.688440
vt 0.550000 0.688440
vt 0.575000 0.688440
vt 0.600000 0.688440
vt 0.625000 0.688440
vt 0.626409 0.751909
vt 0.548284 0.695147
vt 0.451716 0.695147
vt 0.373591 0.751909
vt 0.343750 0.843750
vt 0.373591 0.935591
vt 0.451716 0.992353
vt 0.548284 0.992353
vt 0.626409 0.935591
vt 0.656250 0.843750
vt 0.500000 0.150000
vt 0.500000 0.837500
vn 0.000000 0.809017 -0.587785
vn 0.000000 0.809017 -0.587785
vn 0.000000 0.809017 -0.587785
vn 0.000000 0.809017 -0.587785
vn 0.000000 1.000000 0.000000
vn 0.000000 1.000000 0.000000
vn 0.000000 1.000000 0.000000
vn 0.000000 1.000000 0.000000
vn 0.000000 0.809017 0.587785
vn 0.000000 0.809017 0.587785
vn 0.000000 0.809017 0.587785
vn 0.000000 0.809017 0.587785
vn 0.000000 0.309017 0.951057
vn 0.000000 0.309017 0.951057
vn 0.000000 0.309017 0.951057
vn 0.000000 0.309017 0.951057
vn 0.000000 -0.309017 0.951057
vn 0.000000 -0.309017 0.951057
vn 0.000000 -0.309017 0.951057
vn 0.000000 -0.309017 0.951057
vn 0.000000 -0.809017 0.587785
vn 0.000000 -0.809017 0.587785
vn 0.000000 -0.809017 0.587785
vn 0.000000 -0.809017 0.587785
vn 0.000000 -1.000000 -0.000000
vn 0.000000 -1.000000 -0.000000
vn 0.000000 -1.000000 -0.000000
vn 0.000000 -1.000000 -0.000000
vn 0.000000 -0.809017 -0.587785
vn 0.000000 -0.809017 -0.587785
vn 0.000000 -0.809017 -0.587785
vn 0.000000 -0.809017 -0.587785
vn 0.000000 -0.309017 -0.951056
vn 0.000000 -0.309017 -0.951056
vn 0.000000 -0.309017 -0.951056
vn 0.000000 -0.309017 -0.951056
vn 0.000000 0.309017 -0.951057
vn 0.000000 0.309017 -0.951057
vn 0.000000 0.309017 -0.951057
vn 0.000000 0.309017 -0.951057
vn -1.000000 -0.000000 0.000000
vn -1.000000 -0.000000 0.000000
vn -1.000000 -0.000000 0.000000
vn -1.000000 -0.000000 0.000000
vn -1.000000 -0.000000 0.000000
vn -1.000000 -0.000000 0.000000
vn -1.000000 -0.000000 0.000000
vn -1.000000 -0.000000 0.000000
vn -1.000000 -0.000000 0.000000
vn -1.000000 -0.000000 0.000000
vn -1.000000 -0.000000 0.000000
vn 1.000000 0.000000 0.000000
vn 1.000000 -0.000000 0.000000
vn 1.000000 0.000000 0.000000
vn 1.000000 -0.000000 0.000000
vn 1.000000 0.000000 0.000000
vn 1.000000 0.000000 0.000000
vn 1.000000 0.000000 0.000000
vn 1.000000 0.000000 0.000000
vn 1.000000 0.000000 0.000000
vn 1.000000 0.000000 0.000000
vn 1.000000 0.000000 0.000000
s off
g Trashcan Wheel1
usemtl initialShadingGroup
f 49/75/155 50/76/156 60/87/157 59/86/158
f 50/76/159 51/77/160 61/88/161 60/87/162
f 51/77/163 52/78/164 62/89/165 61/88/166
f 52/78/167 53/79/168 63/90/169 62/89/170
f 53/79/171 54/80/172 64/91/173 63/90/174
f 54/80/175 55/81/176 65/92/177 64/91/178
f 55/81/179 56/82/180 66/93/181 65/92/182
f 56/82/183 57/83/184 67/94/185 66/93/186
f 57/83/187 58/84/188 68/95/189 67/94/190
f 58/84/191 49/85/192 59/96/193 68/95/194
s 1
f 50/66/195 49/65/196 69/107/197 51/67/198
f 52/68/199 51/67/198 69/107/197 53/69/200
f 54/70/201 53/69/200 69/107/197 55/71/202
f 56/72/203 55/71/202 69/107/197 57/73/204
f 58/74/205 57/73/204 69/107/197 49/65/196
s 2
f 59/105/206 60/104/207 70/108/208
f 60/104/207 61/103/209 70/108/208
f 61/103/209 62/102/210 70/108/208
f 62/102/210 63/101/211 70/108/208
f 63/101/211 64/100/212 70/108/208
f 64/100/212 65/99/213 70/108/208
f 65/99/213 66/98/214 70/108/208
f 66/98/214 67/97/215 70/108/208
f 67/97/215 68/106/216 70/108/208
f 68/106/216 59/105/206 70/108/208
g default
v 57.160852 26.715423 -22.647538
v 57.160852 32.390798 -14.836054
v 57.160852 32.390796 -5.180529
v 57.160852 26.715420 2.630954
v 57.160852 17.532471 5.614674
v 57.160852 8.349522 2.630952
v 57.160852 2.674148 -5.180532
v 57.160852 2.674149 -14.836055
v 57.160852 8.349524 -22.647537
v 57.160852 17.532472 -25.631258
v 62.899252 26.715423 -22.647538
v 62.899252 32.390798 -14.836054
v 62.899252 32.390796 -5.180529
v 62.899252 26.715420 2.630954
v 62.899252 17.532471 5.614674
v 62.899252 8.349522 2.630952
v 62.899252 2.674148 -5.180532
v 62.899252 2.674149 -14.836055
v 62.899252 8.349524 -22.647537
v 62.899252 17.532472 -25.631258
v 57.160852 17.532472 -10.008293
v 62.899252 17.532472 -10.008293
vt 0.626409 0.064409
vt 0.548284 0.007647
vt 0.451716 0.007647
vt 0.373591 0.064409
vt 0.343750 0.156250
vt 0.373591 0.248091
vt 0.451716 0.304853
vt 0.548284 0.304853
vt 0.626409 0.248091
vt 0.656250 0.156250
vt 0.375000 0.312500
vt 0.400000 0.312500
vt 0.425000 0.312500
vt 0.450000 0.312500
vt 0.475000 0.312500
vt 0.500000 0.312500
vt 0.525000 0.312500
vt 0.550000 0.312500
vt 0.575000 0.312500
vt 0.600000 0.312500
vt 0.625000 0.312500
vt 0.375000 0.688440
vt 0.400000 0.688440
vt 0.425000 0.688440
vt 0.450000 0.688440
vt 0.475000 0.688440
vt 0.500000 0.688440
vt 0.525000 0.688440
vt 0.550000 0.688440
vt 0.575000 0.688440
vt 0.600000 0.688440
vt 0.625000 0.688440
vt 0.626409 0.751909
vt 0.548284 0.695147
vt 0.451716 0.695147
vt 0.373591 0.751909
vt 0.343750 0.843750
vt 0.373591 0.935591
vt 0.451716 0.992353
vt 0.548284 0.992353
vt 0.626409 0.935591
vt 0.656250 0.843750
vt 0.500000 0.150000
vt 0.500000 0.837500
vn 0.000000 0.809017 -0.587785
vn 0.000000 0.809017 -0.587785
vn 0.000000 0.809017 -0.587785
vn 0.000000 0.809017 -0.587785
vn 0.000000 1.000000 0.000000
vn 0.000000 1.000000 0.000000
vn 0.000000 1.000000 0.000000
vn 0.000000 1.000000 0.000000
vn 0.000000 0.809017 0.587785
vn 0.000000 0.809017 0.587785
vn 0.000000 0.809017 0.587785
vn 0.000000 0.809017 0.587785
vn 0.000000 0.309017 0.951057
vn 0.000000 0.309017 0.951057
vn 0.000000 0.309017 0.951057
vn 0.000000 0.309017 0.951057
vn 0.000000 -0.309017 0.951057
vn 0.000000 -0.309017 0.951057
vn 0.000000 -0.309017 0.951057
vn 0.000000 -0.309017 0.951057
vn 0.000000 -0.809017 0.587785
vn 0.000000 -0.809017 0.587785
vn 0.000000 -0.809017 0.587785
vn 0.000000 -0.809017 0.587785
vn 0.000000 -1.000000 -0.000000
vn 0.000000 -1.000000 -0.000000
vn 0.000000 -1.000000 -0.000000
vn 0.000000 -1.000000 -0.000000
vn 0.000000 -0.809017 -0.587785
vn 0.000000 -0.809017 -0.587785
vn 0.000000 -0.809017 -0.587785
vn 0.000000 -0.809017 -0.587785
vn 0.000000 -0.309017 -0.951056
vn 0.000000 -0.309017 -0.951056
vn 0.000000 -0.309017 -0.951056
vn 0.000000 -0.309017 -0.951056
vn 0.000000 0.309017 -0.951057
vn 0.000000 0.309017 -0.951057
vn 0.000000 0.309017 -0.951057
vn 0.000000 0.309017 -0.951057
vn -1.000000 -0.000000 0.000000
vn -1.000000 -0.000000 0.000000
vn -1.000000 -0.000000 0.000000
vn -1.000000 -0.000000 0.000000
vn -1.000000 -0.000000 0.000000
vn -1.000000 -0.000000 0.000000
vn -1.000000 -0.000000 0.000000
vn -1.000000 -0.000000 0.000000
vn -1.000000 -0.000000 0.000000
vn -1.000000 -0.000000 0.000000
vn -1.000000 -0.000000 0.000000
vn 1.000000 0.000000 0.000000
vn 1.000000 -0.000000 0.000000
vn 1.000000 0.000000 0.000000
vn 1.000000 -0.000000 0.000000
vn 1.000000 0.000000 -0.000000
vn 1.000000 0.000000 0.000000
vn 1.000000 0.000000 0.000000
vn 1.000000 0.000000 0.000000
vn 1.000000 0.000000 0.000000
vn 1.000000 0.000000 0.000000
vn 1.000000 0.000000 0.000000
s off
g Trashcan Wheel2
usemtl initialShadingGroup
f 71/119/217 72/120/218 82/131/219 81/130/220
f 72/120/221 73/121/222 83/132/223 82/131/224
f 73/121/225 74/122/226 84/133/227 83/132/228
f 74/122/229 75/123/230 85/134/231 84/133/232
f 75/123/233 76/124/234 86/135/235 85/134/236
f 76/124/237 77/125/238 87/136/239 86/135/240
f 77/125/241 78/126/242 88/137/243 87/136/244
f 78/126/245 79/127/246 89/138/247 88/137/248
f 79/127/249 80/128/250 90/139/251 89/138/252
f 80/128/253 71/129/254 81/140/255 90/139/256
s 1
f 72/110/257 71/109/258 91/151/259 73/111/260
f 74/112/261 73/111/260 91/151/259 75/113/262
f 76/114/263 75/113/262 91/151/259 77/115/264
f 78/116/265 77/115/264 91/151/259 79/117/266
f 80/118/267 79/117/266 91/151/259 71/109/258
s 2
f 81/149/268 82/148/269 92/152/270
f 82/148/269 83/147/271 92/152/270
f 83/147/271 84/146/272 92/152/270
f 84/146/272 85/145/273 92/152/270
f 85/145/273 86/144/274 92/152/270
f 86/144/274 87/143/275 92/152/270
f 87/143/275 88/142/276 92/152/270
f 88/142/276 89/141/277 92/152/270
f 89/141/277 90/150/278 92/152/270
f 90/150/278 81/149/268 92/152/270
